<svg xmlns="http://www.w3.org/2000/svg" xmlns:xlink="http://www.w3.org/1999/xlink" viewBox="0,0,256,256" width="48px" height="48px"><g fill="#fa5252" fill-rule="nonzero" stroke="none" stroke-width="1" stroke-linecap="butt" stroke-linejoin="miter" stroke-miterlimit="10" stroke-dasharray="" stroke-dashoffset="0" font-family="none" font-weight="none" font-size="none" text-anchor="none" style="mix-blend-mode: normal"><g transform="scale(5.33333,5.33333)"><path d="M20.5,4c-0.49034,-0.00628 -0.95279,0.22749 -1.23848,0.62606c-0.28569,0.39856 -0.35854,0.9116 -0.19511,1.37394h-4.42578c-1.844,0 -3.55417,0.91622 -4.57617,2.44922l-2.36719,3.55078h-0.19727c-0.54095,-0.00765 -1.04412,0.27656 -1.31683,0.74381c-0.27271,0.46725 -0.27271,1.04514 0,1.51238c0.27271,0.46725 0.77588,0.75146 1.31683,0.74381h33c0.54095,0.00765 1.04412,-0.27656 1.31683,-0.74381c0.27271,-0.46725 0.27271,-1.04514 0,-1.51238c-0.27271,-0.46725 -0.77588,-0.75146 -1.31683,-0.74381h-0.19727l-2.36719,-3.55078c-1.022,-1.533 -2.73317,-2.44922 -4.57617,-2.44922h-4.42578c0.16343,-0.46234 0.09058,-0.97538 -0.19511,-1.37394c-0.28569,-0.39856 -0.74814,-0.63234 -1.23848,-0.62606zM8.97266,18l2.15234,20.08594c0.3,2.802 2.65075,4.91406 5.46875,4.91406h14.8125c2.817,0 5.16775,-2.11206 5.46875,-4.91406l2.15234,-20.08594z"></path></g></g></svg>